solid OpenSCAD_Model
  facet normal -1 -0 -0
    outer loop
      vertex 0 0 0
      vertex 0 0 6
      vertex 0 150.2 0
    endloop
  endfacet
  facet normal -1 0 0
    outer loop
      vertex 0 150.2 0
      vertex 0 0 6
      vertex 0 150.2 6
    endloop
  endfacet
  facet normal 0 -1 0
    outer loop
      vertex 0 0 6
      vertex 0 0 0
      vertex 97.6 0 0
    endloop
  endfacet
  facet normal 0 -1 0
    outer loop
      vertex 97.6 0 6
      vertex 0 0 6
      vertex 97.6 0 0
    endloop
  endfacet
  facet normal 0 -0 -1
    outer loop
      vertex 91.4 145.857 0
      vertex 0 150.2 0
      vertex 97.6 150.2 0
    endloop
  endfacet
  facet normal 0 0 -1
    outer loop
      vertex 89.9458 142.346 0
      vertex 85.6 138.2 0
      vertex 89.3435 143.8 0
    endloop
  endfacet
  facet normal -0 -0 -1
    outer loop
      vertex 27.1 145.857 0
      vertex 0 150.2 0
      vertex 85.6 138.2 0
    endloop
  endfacet
  facet normal -0 0 -1
    outer loop
      vertex 92.8542 145.254 0
      vertex 97.6 150.2 0
      vertex 93.4565 143.8 0
    endloop
  endfacet
  facet normal -0 -0 -1
    outer loop
      vertex 19.5565 30.1 0
      vertex 0 150.2 0
      vertex 23.3 12 0
    endloop
  endfacet
  facet normal -0 0 -1
    outer loop
      vertex 0 0 0
      vertex 23.3 12 0
      vertex 97.6 0 0
    endloop
  endfacet
  facet normal -0 0 -1
    outer loop
      vertex 5.93205 9.6 0
      vertex 23.3 12 0
      vertex 5.06602 8.1 0
    endloop
  endfacet
  facet normal 0 -0 -1
    outer loop
      vertex 0 0 0
      vertex 0 150.2 0
      vertex 2.46795 9.6 0
    endloop
  endfacet
  facet normal 0 0 -1
    outer loop
      vertex 0 0 0
      vertex 2.46795 9.6 0
      vertex 3.33397 8.1 0
    endloop
  endfacet
  facet normal 0 0 -1
    outer loop
      vertex 0 0 0
      vertex 3.33397 8.1 0
      vertex 5.06602 8.1 0
    endloop
  endfacet
  facet normal 0 0 -1
    outer loop
      vertex 0 0 0
      vertex 5.06602 8.1 0
      vertex 23.3 12 0
    endloop
  endfacet
  facet normal -0 0 -1
    outer loop
      vertex 5.06602 11.1 0
      vertex 23.3 12 0
      vertex 5.93205 9.6 0
    endloop
  endfacet
  facet normal -0 -0 -1
    outer loop
      vertex 3.33398 11.1 0
      vertex 0 150.2 0
      vertex 5.06602 11.1 0
    endloop
  endfacet
  facet normal -0 -0 -1
    outer loop
      vertex 6.33397 128.7 0
      vertex 0 150.2 0
      vertex 8.06602 128.7 0
    endloop
  endfacet
  facet normal 0 -0 -1
    outer loop
      vertex 2.46795 9.6 0
      vertex 0 150.2 0
      vertex 3.33398 11.1 0
    endloop
  endfacet
  facet normal 0 0 -1
    outer loop
      vertex 23.3 12 0
      vertex 0 150.2 0
      vertex 5.46795 127.2 0
    endloop
  endfacet
  facet normal 0 0 -1
    outer loop
      vertex 89.9458 7.5542 0
      vertex 89.3435 6.1 0
      vertex 23.3 12 0
    endloop
  endfacet
  facet normal 0 0 -1
    outer loop
      vertex 23.3 12 0
      vertex 5.46795 127.2 0
      vertex 6.33397 125.7 0
    endloop
  endfacet
  facet normal 0 0 -1
    outer loop
      vertex 97.6 12 0
      vertex 91.4 8.15654 0
      vertex 89.9458 7.5542 0
    endloop
  endfacet
  facet normal 0 0 -1
    outer loop
      vertex 17.5 28.0435 0
      vertex 23.3 12 0
      vertex 16.0458 28.6458 0
    endloop
  endfacet
  facet normal 0 0 -1
    outer loop
      vertex 97.6 12 0
      vertex 89.9458 7.5542 0
      vertex 23.3 12 0
    endloop
  endfacet
  facet normal -0 -0 -1
    outer loop
      vertex 8.06602 128.7 0
      vertex 0 150.2 0
      vertex 8.93205 127.2 0
    endloop
  endfacet
  facet normal 0 -0 -1
    outer loop
      vertex 5.46795 127.2 0
      vertex 0 150.2 0
      vertex 6.33397 128.7 0
    endloop
  endfacet
  facet normal 0 -0 -1
    outer loop
      vertex 5.06602 11.1 0
      vertex 0 150.2 0
      vertex 15.4435 30.1 0
    endloop
  endfacet
  facet normal 0 0 -1
    outer loop
      vertex 5.06602 11.1 0
      vertex 15.4435 30.1 0
      vertex 16.0458 28.6458 0
    endloop
  endfacet
  facet normal 0 0 -1
    outer loop
      vertex 5.06602 11.1 0
      vertex 16.0458 28.6458 0
      vertex 23.3 12 0
    endloop
  endfacet
  facet normal 0 -0 -1
    outer loop
      vertex 25.0435 143.8 0
      vertex 0 150.2 0
      vertex 25.6458 145.254 0
    endloop
  endfacet
  facet normal -0 -0 -1
    outer loop
      vertex 17.5 32.1565 0
      vertex 0 150.2 0
      vertex 18.9542 31.5542 0
    endloop
  endfacet
  facet normal 0 -0 -1
    outer loop
      vertex 16.0458 31.5542 0
      vertex 0 150.2 0
      vertex 17.5 32.1565 0
    endloop
  endfacet
  facet normal -0 0 -1
    outer loop
      vertex 17.5 28.0435 0
      vertex 18.9542 28.6458 0
      vertex 23.3 12 0
    endloop
  endfacet
  facet normal -0 -0 -1
    outer loop
      vertex 18.9542 31.5542 0
      vertex 0 150.2 0
      vertex 19.5565 30.1 0
    endloop
  endfacet
  facet normal -0 0 -1
    outer loop
      vertex 18.9542 28.6458 0
      vertex 19.5565 30.1 0
      vertex 23.3 12 0
    endloop
  endfacet
  facet normal 0 -0 -1
    outer loop
      vertex 15.4435 30.1 0
      vertex 0 150.2 0
      vertex 16.0458 31.5542 0
    endloop
  endfacet
  facet normal 0 0 -1
    outer loop
      vertex 25.6458 142.346 0
      vertex 0 150.2 0
      vertex 25.0435 143.8 0
    endloop
  endfacet
  facet normal 0 -0 -1
    outer loop
      vertex 23.3 138.2 0
      vertex 0 150.2 0
      vertex 27.1 141.743 0
    endloop
  endfacet
  facet normal 0 0 -1
    outer loop
      vertex 27.1 141.743 0
      vertex 0 150.2 0
      vertex 25.6458 142.346 0
    endloop
  endfacet
  facet normal 0 0 -1
    outer loop
      vertex 92.8542 7.5542 0
      vertex 97.6 0 0
      vertex 93.4565 6.1 0
    endloop
  endfacet
  facet normal 0 0 -1
    outer loop
      vertex 23.3 12 0
      vertex 8.93205 127.2 0
      vertex 23.3 138.2 0
    endloop
  endfacet
  facet normal 0 0 -1
    outer loop
      vertex 29.1565 143.8 0
      vertex 85.6 138.2 0
      vertex 28.5542 142.346 0
    endloop
  endfacet
  facet normal 0 -0 -1
    outer loop
      vertex 25.6458 145.254 0
      vertex 0 150.2 0
      vertex 27.1 145.857 0
    endloop
  endfacet
  facet normal 0 0 -1
    outer loop
      vertex 92.8542 4.6458 0
      vertex 97.6 0 0
      vertex 91.4 4.04345 0
    endloop
  endfacet
  facet normal -0 -0 -1
    outer loop
      vertex 29.1565 143.8 0
      vertex 28.5542 145.254 0
      vertex 85.6 138.2 0
    endloop
  endfacet
  facet normal -0 -0 -1
    outer loop
      vertex 28.5542 145.254 0
      vertex 27.1 145.857 0
      vertex 85.6 138.2 0
    endloop
  endfacet
  facet normal 0 0 -1
    outer loop
      vertex 97.6 12 0
      vertex 97.6 0 0
      vertex 92.8542 7.5542 0
    endloop
  endfacet
  facet normal 0 0 -1
    outer loop
      vertex 23.3 12 0
      vertex 89.3435 6.1 0
      vertex 89.9458 4.6458 0
    endloop
  endfacet
  facet normal 0 0 -1
    outer loop
      vertex 23.3 12 0
      vertex 89.9458 4.6458 0
      vertex 97.6 0 0
    endloop
  endfacet
  facet normal 0 0 -1
    outer loop
      vertex 89.9458 4.6458 0
      vertex 91.4 4.04345 0
      vertex 97.6 0 0
    endloop
  endfacet
  facet normal 0 0 -1
    outer loop
      vertex 97.6 12 0
      vertex 92.8542 7.5542 0
      vertex 91.4 8.15654 0
    endloop
  endfacet
  facet normal 0 0 -1
    outer loop
      vertex 93.4565 6.1 0
      vertex 97.6 0 0
      vertex 92.8542 4.6458 0
    endloop
  endfacet
  facet normal -0 -0 -1
    outer loop
      vertex 91.334 128.7 0
      vertex 89.9458 142.346 0
      vertex 93.066 128.7 0
    endloop
  endfacet
  facet normal 0 -0 -1
    outer loop
      vertex 85.6 138.2 0
      vertex 0 150.2 0
      vertex 89.3435 143.8 0
    endloop
  endfacet
  facet normal 0 0 -1
    outer loop
      vertex 91.334 128.7 0
      vertex 85.6 138.2 0
      vertex 89.9458 142.346 0
    endloop
  endfacet
  facet normal 0 0 -1
    outer loop
      vertex 97.6 115.2 0
      vertex 89.9458 142.346 0
      vertex 91.4 141.743 0
    endloop
  endfacet
  facet normal 0 0 -1
    outer loop
      vertex 97.6 115.2 0
      vertex 91.4 141.743 0
      vertex 92.8542 142.346 0
    endloop
  endfacet
  facet normal 0 0 -1
    outer loop
      vertex 97.6 115.2 0
      vertex 92.8542 142.346 0
      vertex 97.6 150.2 0
    endloop
  endfacet
  facet normal 0 0 -1
    outer loop
      vertex 92.8542 142.346 0
      vertex 93.4565 143.8 0
      vertex 97.6 150.2 0
    endloop
  endfacet
  facet normal -0 0 -1
    outer loop
      vertex 91.4 145.857 0
      vertex 97.6 150.2 0
      vertex 92.8542 145.254 0
    endloop
  endfacet
  facet normal 0 -0 -1
    outer loop
      vertex 89.9458 145.254 0
      vertex 0 150.2 0
      vertex 91.4 145.857 0
    endloop
  endfacet
  facet normal 0 -0 -1
    outer loop
      vertex 90.4679 127.2 0
      vertex 85.6 138.2 0
      vertex 91.334 128.7 0
    endloop
  endfacet
  facet normal 0 -0 -1
    outer loop
      vertex 89.3435 143.8 0
      vertex 0 150.2 0
      vertex 89.9458 145.254 0
    endloop
  endfacet
  facet normal 0 0 -1
    outer loop
      vertex 23.3 138.2 0
      vertex 27.1 141.743 0
      vertex 28.5542 142.346 0
    endloop
  endfacet
  facet normal 0 0 -1
    outer loop
      vertex 93.066 125.7 0
      vertex 97.6 115.2 0
      vertex 91.334 125.7 0
    endloop
  endfacet
  facet normal -0 0 -1
    outer loop
      vertex 23.3 138.2 0
      vertex 28.5542 142.346 0
      vertex 85.6 138.2 0
    endloop
  endfacet
  facet normal 0 0 -1
    outer loop
      vertex 97.6 115.2 0
      vertex 93.066 125.7 0
      vertex 93.9321 127.2 0
    endloop
  endfacet
  facet normal 0 0 -1
    outer loop
      vertex 97.6 115.2 0
      vertex 93.9321 127.2 0
      vertex 89.9458 142.346 0
    endloop
  endfacet
  facet normal 0 0 -1
    outer loop
      vertex 93.9321 127.2 0
      vertex 93.066 128.7 0
      vertex 89.9458 142.346 0
    endloop
  endfacet
  facet normal 0 0 -1
    outer loop
      vertex 91.334 125.7 0
      vertex 97.6 115.2 0
      vertex 85.6 115.2 0
    endloop
  endfacet
  facet normal 0 0 -1
    outer loop
      vertex 90.4679 127.2 0
      vertex 91.334 125.7 0
      vertex 85.6 115.2 0
    endloop
  endfacet
  facet normal 0 0 -1
    outer loop
      vertex 85.6 138.2 0
      vertex 90.4679 127.2 0
      vertex 85.6 115.2 0
    endloop
  endfacet
  facet normal 0 0 -1
    outer loop
      vertex 23.3 12 0
      vertex 6.33397 125.7 0
      vertex 8.06602 125.7 0
    endloop
  endfacet
  facet normal 0 0 -1
    outer loop
      vertex 23.3 12 0
      vertex 8.06602 125.7 0
      vertex 8.93205 127.2 0
    endloop
  endfacet
  facet normal 0 -0 -1
    outer loop
      vertex 8.93205 127.2 0
      vertex 0 150.2 0
      vertex 23.3 138.2 0
    endloop
  endfacet
  facet normal 0 1 0
    outer loop
      vertex 0 150.2 0
      vertex 0 150.2 6
      vertex 97.6 150.2 0
    endloop
  endfacet
  facet normal 0 1 0
    outer loop
      vertex 97.6 150.2 0
      vertex 0 150.2 6
      vertex 97.6 150.2 6
    endloop
  endfacet
  facet normal 0 -0 1
    outer loop
      vertex 23.3 12 6
      vertex 0 0 6
      vertex 97.6 0 6
    endloop
  endfacet
  facet normal -0 -0 1
    outer loop
      vertex 90.6011 2.6 6
      vertex 23.3 12 6
      vertex 97.6 0 6
    endloop
  endfacet
  facet normal 0 -0 1
    outer loop
      vertex 5.06602 8.1 6
      vertex 0 0 6
      vertex 23.3 12 6
    endloop
  endfacet
  facet normal -0 0 1
    outer loop
      vertex 23.8655 142.242 6
      vertex 0 150.2 6
      vertex 23.3 138.2 6
    endloop
  endfacet
  facet normal 0 0 1
    outer loop
      vertex 27.8989 147.3 6
      vertex 29.3383 146.607 6
      vertex 85.6 138.2 6
    endloop
  endfacet
  facet normal 0 0 1
    outer loop
      vertex 19.7383 32.9068 6
      vertex 5.46795 127.2 6
      vertex 0 150.2 6
    endloop
  endfacet
  facet normal 0 0 1
    outer loop
      vertex 90.4679 127.2 6
      vertex 91.334 128.7 6
      vertex 85.6 138.2 6
    endloop
  endfacet
  facet normal 0 0 1
    outer loop
      vertex 5.46795 127.2 6
      vertex 6.33397 128.7 6
      vertex 0 150.2 6
    endloop
  endfacet
  facet normal 0 -0 1
    outer loop
      vertex 2.46795 9.6 6
      vertex 0 0 6
      vertex 3.33397 8.1 6
    endloop
  endfacet
  facet normal 0 -0 1
    outer loop
      vertex 5.93205 9.6 6
      vertex 5.06602 8.1 6
      vertex 23.3 12 6
    endloop
  endfacet
  facet normal 0 -0 1
    outer loop
      vertex 0 150.2 6
      vertex 0 0 6
      vertex 2.46795 9.6 6
    endloop
  endfacet
  facet normal 0 -0 1
    outer loop
      vertex 14.2655 28.5424 6
      vertex 3.33398 11.1 6
      vertex 23.3 12 6
    endloop
  endfacet
  facet normal 0 0 1
    outer loop
      vertex 3.33398 11.1 6
      vertex 5.06602 11.1 6
      vertex 23.3 12 6
    endloop
  endfacet
  facet normal 0 0 1
    outer loop
      vertex 5.06602 11.1 6
      vertex 5.93205 9.6 6
      vertex 23.3 12 6
    endloop
  endfacet
  facet normal 0 -0 1
    outer loop
      vertex 3.33397 8.1 6
      vertex 0 0 6
      vertex 5.06602 8.1 6
    endloop
  endfacet
  facet normal 0 -0 1
    outer loop
      vertex 21.09 30.1 6
      vertex 20.7345 28.5424 6
      vertex 23.3 12 6
    endloop
  endfacet
  facet normal 0 0 1
    outer loop
      vertex 13.91 30.1 6
      vertex 14.2655 31.6576 6
      vertex 0 150.2 6
    endloop
  endfacet
  facet normal 0 -0 1
    outer loop
      vertex 20.7345 28.5424 6
      vertex 19.7383 27.2932 6
      vertex 23.3 12 6
    endloop
  endfacet
  facet normal 0 0 1
    outer loop
      vertex 0 150.2 6
      vertex 6.33397 128.7 6
      vertex 8.06602 128.7 6
    endloop
  endfacet
  facet normal -0 -0 1
    outer loop
      vertex 15.2617 27.2932 6
      vertex 14.2655 28.5424 6
      vertex 23.3 12 6
    endloop
  endfacet
  facet normal 0 -0 1
    outer loop
      vertex 13.91 30.1 6
      vertex 3.33398 11.1 6
      vertex 14.2655 28.5424 6
    endloop
  endfacet
  facet normal 0 0 1
    outer loop
      vertex 24.8617 146.607 6
      vertex 26.3011 147.3 6
      vertex 0 150.2 6
    endloop
  endfacet
  facet normal 0 0 1
    outer loop
      vertex 0 150.2 6
      vertex 3.33398 11.1 6
      vertex 13.91 30.1 6
    endloop
  endfacet
  facet normal -0 -0 1
    outer loop
      vertex 16.7011 26.6 6
      vertex 15.2617 27.2932 6
      vertex 23.3 12 6
    endloop
  endfacet
  facet normal 0 0 1
    outer loop
      vertex 0 150.2 6
      vertex 14.2655 31.6576 6
      vertex 15.2617 32.9068 6
    endloop
  endfacet
  facet normal -0 -0 1
    outer loop
      vertex 18.2989 26.6 6
      vertex 16.7011 26.6 6
      vertex 23.3 12 6
    endloop
  endfacet
  facet normal 0 0 1
    outer loop
      vertex 0 150.2 6
      vertex 15.2617 32.9068 6
      vertex 16.7011 33.6 6
    endloop
  endfacet
  facet normal 0 -0 1
    outer loop
      vertex 19.7383 27.2932 6
      vertex 18.2989 26.6 6
      vertex 23.3 12 6
    endloop
  endfacet
  facet normal 0 0 1
    outer loop
      vertex 0 150.2 6
      vertex 16.7011 33.6 6
      vertex 18.2989 33.6 6
    endloop
  endfacet
  facet normal 0 0 1
    outer loop
      vertex 0 150.2 6
      vertex 18.2989 33.6 6
      vertex 19.7383 32.9068 6
    endloop
  endfacet
  facet normal 0 0 1
    outer loop
      vertex 19.7383 32.9068 6
      vertex 6.33397 125.7 6
      vertex 5.46795 127.2 6
    endloop
  endfacet
  facet normal 0 0 1
    outer loop
      vertex 23.3 12 6
      vertex 23.3 138.2 6
      vertex 21.09 30.1 6
    endloop
  endfacet
  facet normal 0 -0 1
    outer loop
      vertex 93.6383 3.29322 6
      vertex 92.1989 2.6 6
      vertex 97.6 0 6
    endloop
  endfacet
  facet normal 0 0 1
    outer loop
      vertex 30.3345 145.358 6
      vertex 30.69 143.8 6
      vertex 85.6 138.2 6
    endloop
  endfacet
  facet normal -0 0 1
    outer loop
      vertex 24.8617 140.993 6
      vertex 23.8655 142.242 6
      vertex 23.3 138.2 6
    endloop
  endfacet
  facet normal -0 -0 1
    outer loop
      vertex 23.51 143.8 6
      vertex 0 150.2 6
      vertex 23.8655 142.242 6
    endloop
  endfacet
  facet normal -0 0 1
    outer loop
      vertex 23.8655 145.358 6
      vertex 0 150.2 6
      vertex 23.51 143.8 6
    endloop
  endfacet
  facet normal -0 0 1
    outer loop
      vertex 24.8617 146.607 6
      vertex 0 150.2 6
      vertex 23.8655 145.358 6
    endloop
  endfacet
  facet normal 0 -0 1
    outer loop
      vertex 94.99 6.1 6
      vertex 94.6345 4.54235 6
      vertex 97.6 0 6
    endloop
  endfacet
  facet normal 0 0 1
    outer loop
      vertex 29.3383 146.607 6
      vertex 30.3345 145.358 6
      vertex 85.6 138.2 6
    endloop
  endfacet
  facet normal 0 0 1
    outer loop
      vertex 97.6 150.2 6
      vertex 0 150.2 6
      vertex 26.3011 147.3 6
    endloop
  endfacet
  facet normal -0 0 1
    outer loop
      vertex 88.1655 142.242 6
      vertex 27.8989 147.3 6
      vertex 85.6 138.2 6
    endloop
  endfacet
  facet normal 0 0 1
    outer loop
      vertex 97.6 150.2 6
      vertex 26.3011 147.3 6
      vertex 27.8989 147.3 6
    endloop
  endfacet
  facet normal 0 -0 1
    outer loop
      vertex 30.69 143.8 6
      vertex 30.3345 142.242 6
      vertex 85.6 138.2 6
    endloop
  endfacet
  facet normal 0 -0 1
    outer loop
      vertex 30.3345 142.242 6
      vertex 29.3383 140.993 6
      vertex 85.6 138.2 6
    endloop
  endfacet
  facet normal -0 0 1
    outer loop
      vertex 27.8989 140.3 6
      vertex 26.3011 140.3 6
      vertex 23.3 138.2 6
    endloop
  endfacet
  facet normal -0 0 1
    outer loop
      vertex 85.6 138.2 6
      vertex 27.8989 140.3 6
      vertex 23.3 138.2 6
    endloop
  endfacet
  facet normal 0 0 1
    outer loop
      vertex 85.6 138.2 6
      vertex 29.3383 140.993 6
      vertex 27.8989 140.3 6
    endloop
  endfacet
  facet normal -0 0 1
    outer loop
      vertex 26.3011 140.3 6
      vertex 24.8617 140.993 6
      vertex 23.3 138.2 6
    endloop
  endfacet
  facet normal -0 -0 1
    outer loop
      vertex 92.1989 2.6 6
      vertex 90.6011 2.6 6
      vertex 97.6 0 6
    endloop
  endfacet
  facet normal -0 0 1
    outer loop
      vertex 89.1617 140.993 6
      vertex 88.1655 142.242 6
      vertex 85.6 138.2 6
    endloop
  endfacet
  facet normal 0 -0 1
    outer loop
      vertex 94.6345 4.54235 6
      vertex 93.6383 3.29322 6
      vertex 97.6 0 6
    endloop
  endfacet
  facet normal 0 0 1
    outer loop
      vertex 97.6 12 6
      vertex 92.1989 9.6 6
      vertex 93.6383 8.90678 6
    endloop
  endfacet
  facet normal 0 0 1
    outer loop
      vertex 97.6 12 6
      vertex 94.6345 7.65765 6
      vertex 97.6 0 6
    endloop
  endfacet
  facet normal 0 0 1
    outer loop
      vertex 97.6 12 6
      vertex 93.6383 8.90678 6
      vertex 94.6345 7.65765 6
    endloop
  endfacet
  facet normal 0 0 1
    outer loop
      vertex 94.6345 7.65765 6
      vertex 94.99 6.1 6
      vertex 97.6 0 6
    endloop
  endfacet
  facet normal 0 0 1
    outer loop
      vertex 19.7383 32.9068 6
      vertex 20.7345 31.6576 6
      vertex 6.33397 125.7 6
    endloop
  endfacet
  facet normal 0 0 1
    outer loop
      vertex 93.6383 146.607 6
      vertex 94.6345 145.358 6
      vertex 97.6 150.2 6
    endloop
  endfacet
  facet normal 0 0 1
    outer loop
      vertex 21.09 30.1 6
      vertex 23.3 138.2 6
      vertex 8.93205 127.2 6
    endloop
  endfacet
  facet normal 0 0 1
    outer loop
      vertex 8.93205 127.2 6
      vertex 23.3 138.2 6
      vertex 0 150.2 6
    endloop
  endfacet
  facet normal -0 -0 1
    outer loop
      vertex 87.81 143.8 6
      vertex 27.8989 147.3 6
      vertex 88.1655 142.242 6
    endloop
  endfacet
  facet normal 0 -0 1
    outer loop
      vertex 94.99 143.8 6
      vertex 94.6345 142.242 6
      vertex 97.6 115.2 6
    endloop
  endfacet
  facet normal -0 0 1
    outer loop
      vertex 88.1655 145.358 6
      vertex 27.8989 147.3 6
      vertex 87.81 143.8 6
    endloop
  endfacet
  facet normal -0 0 1
    outer loop
      vertex 89.1617 146.607 6
      vertex 27.8989 147.3 6
      vertex 88.1655 145.358 6
    endloop
  endfacet
  facet normal 0 0 1
    outer loop
      vertex 90.6011 147.3 6
      vertex 27.8989 147.3 6
      vertex 89.1617 146.607 6
    endloop
  endfacet
  facet normal 0 0 1
    outer loop
      vertex 92.1989 147.3 6
      vertex 93.6383 146.607 6
      vertex 97.6 150.2 6
    endloop
  endfacet
  facet normal 0 0 1
    outer loop
      vertex 97.6 150.2 6
      vertex 27.8989 147.3 6
      vertex 90.6011 147.3 6
    endloop
  endfacet
  facet normal -0 -0 1
    outer loop
      vertex 93.066 125.7 6
      vertex 91.334 125.7 6
      vertex 97.6 115.2 6
    endloop
  endfacet
  facet normal -0 0 1
    outer loop
      vertex 92.1989 140.3 6
      vertex 90.6011 140.3 6
      vertex 85.6 138.2 6
    endloop
  endfacet
  facet normal 0 0 1
    outer loop
      vertex 90.6011 147.3 6
      vertex 92.1989 147.3 6
      vertex 97.6 150.2 6
    endloop
  endfacet
  facet normal 0 0 1
    outer loop
      vertex 97.6 150.2 6
      vertex 94.99 143.8 6
      vertex 97.6 115.2 6
    endloop
  endfacet
  facet normal 0 0 1
    outer loop
      vertex 97.6 150.2 6
      vertex 94.6345 145.358 6
      vertex 94.99 143.8 6
    endloop
  endfacet
  facet normal 0 -0 1
    outer loop
      vertex 94.6345 142.242 6
      vertex 93.6383 140.993 6
      vertex 97.6 115.2 6
    endloop
  endfacet
  facet normal 0 -0 1
    outer loop
      vertex 93.6383 140.993 6
      vertex 92.1989 140.3 6
      vertex 97.6 115.2 6
    endloop
  endfacet
  facet normal -0 0 1
    outer loop
      vertex 90.6011 140.3 6
      vertex 89.1617 140.993 6
      vertex 85.6 138.2 6
    endloop
  endfacet
  facet normal 0 0 1
    outer loop
      vertex 2.46795 9.6 6
      vertex 3.33398 11.1 6
      vertex 0 150.2 6
    endloop
  endfacet
  facet normal 0 -0 1
    outer loop
      vertex 93.9321 127.2 6
      vertex 93.066 125.7 6
      vertex 97.6 115.2 6
    endloop
  endfacet
  facet normal 0 0 1
    outer loop
      vertex 92.1989 140.3 6
      vertex 85.6 138.2 6
      vertex 91.334 128.7 6
    endloop
  endfacet
  facet normal 0 -0 1
    outer loop
      vertex 92.1989 140.3 6
      vertex 91.334 128.7 6
      vertex 93.066 128.7 6
    endloop
  endfacet
  facet normal 0 0 1
    outer loop
      vertex 92.1989 140.3 6
      vertex 93.9321 127.2 6
      vertex 97.6 115.2 6
    endloop
  endfacet
  facet normal 0 0 1
    outer loop
      vertex 92.1989 140.3 6
      vertex 93.066 128.7 6
      vertex 93.9321 127.2 6
    endloop
  endfacet
  facet normal 0 0 1
    outer loop
      vertex 21.09 30.1 6
      vertex 6.33397 125.7 6
      vertex 20.7345 31.6576 6
    endloop
  endfacet
  facet normal 0 0 1
    outer loop
      vertex 21.09 30.1 6
      vertex 8.06602 125.7 6
      vertex 6.33397 125.7 6
    endloop
  endfacet
  facet normal 0 0 1
    outer loop
      vertex 21.09 30.1 6
      vertex 8.93205 127.2 6
      vertex 8.06602 125.7 6
    endloop
  endfacet
  facet normal 0 0 1
    outer loop
      vertex 8.93205 127.2 6
      vertex 0 150.2 6
      vertex 8.06602 128.7 6
    endloop
  endfacet
  facet normal 0 0 1
    outer loop
      vertex 85.6 115.2 6
      vertex 90.4679 127.2 6
      vertex 85.6 138.2 6
    endloop
  endfacet
  facet normal 0 0 1
    outer loop
      vertex 85.6 115.2 6
      vertex 91.334 125.7 6
      vertex 90.4679 127.2 6
    endloop
  endfacet
  facet normal 0 0 1
    outer loop
      vertex 85.6 115.2 6
      vertex 97.6 115.2 6
      vertex 91.334 125.7 6
    endloop
  endfacet
  facet normal 0 0 1
    outer loop
      vertex 97.6 12 6
      vertex 90.6011 9.6 6
      vertex 92.1989 9.6 6
    endloop
  endfacet
  facet normal -0 -0 1
    outer loop
      vertex 89.1617 3.29322 6
      vertex 23.3 12 6
      vertex 90.6011 2.6 6
    endloop
  endfacet
  facet normal -0 -0 1
    outer loop
      vertex 88.1655 4.54235 6
      vertex 23.3 12 6
      vertex 89.1617 3.29322 6
    endloop
  endfacet
  facet normal -0 -0 1
    outer loop
      vertex 87.81 6.1 6
      vertex 23.3 12 6
      vertex 88.1655 4.54235 6
    endloop
  endfacet
  facet normal -0 0 1
    outer loop
      vertex 88.1655 7.65765 6
      vertex 23.3 12 6
      vertex 87.81 6.1 6
    endloop
  endfacet
  facet normal -0 0 1
    outer loop
      vertex 89.1617 8.90678 6
      vertex 23.3 12 6
      vertex 88.1655 7.65765 6
    endloop
  endfacet
  facet normal -0 0 1
    outer loop
      vertex 90.6011 9.6 6
      vertex 23.3 12 6
      vertex 89.1617 8.90678 6
    endloop
  endfacet
  facet normal 0 0 1
    outer loop
      vertex 97.6 12 6
      vertex 23.3 12 6
      vertex 90.6011 9.6 6
    endloop
  endfacet
  facet normal 1 0 -0
    outer loop
      vertex 97.6 0 6
      vertex 97.6 0 0
      vertex 97.6 12 0
    endloop
  endfacet
  facet normal 1 0 0
    outer loop
      vertex 97.6 12 6
      vertex 97.6 0 6
      vertex 97.6 12 0
    endloop
  endfacet
  facet normal 0 1 0
    outer loop
      vertex 23.3 12 0
      vertex 23.3 12 6
      vertex 97.6 12 0
    endloop
  endfacet
  facet normal 0 1 0
    outer loop
      vertex 97.6 12 0
      vertex 23.3 12 6
      vertex 97.6 12 6
    endloop
  endfacet
  facet normal 1 0 -0
    outer loop
      vertex 23.3 12 6
      vertex 23.3 12 0
      vertex 23.3 138.2 0
    endloop
  endfacet
  facet normal 1 0 0
    outer loop
      vertex 23.3 138.2 6
      vertex 23.3 12 6
      vertex 23.3 138.2 0
    endloop
  endfacet
  facet normal 0 -1 0
    outer loop
      vertex 23.3 138.2 6
      vertex 23.3 138.2 0
      vertex 85.6 138.2 0
    endloop
  endfacet
  facet normal 0 -1 0
    outer loop
      vertex 85.6 138.2 6
      vertex 23.3 138.2 6
      vertex 85.6 138.2 0
    endloop
  endfacet
  facet normal -1 -0 -0
    outer loop
      vertex 85.6 115.2 0
      vertex 85.6 115.2 6
      vertex 85.6 138.2 0
    endloop
  endfacet
  facet normal -1 0 0
    outer loop
      vertex 85.6 138.2 0
      vertex 85.6 115.2 6
      vertex 85.6 138.2 6
    endloop
  endfacet
  facet normal 0 -1 0
    outer loop
      vertex 85.6 115.2 6
      vertex 85.6 115.2 0
      vertex 97.6 115.2 0
    endloop
  endfacet
  facet normal 0 -1 0
    outer loop
      vertex 97.6 115.2 6
      vertex 85.6 115.2 6
      vertex 97.6 115.2 0
    endloop
  endfacet
  facet normal 1 0 -0
    outer loop
      vertex 97.6 115.2 6
      vertex 97.6 115.2 0
      vertex 97.6 150.2 0
    endloop
  endfacet
  facet normal 1 0 0
    outer loop
      vertex 97.6 150.2 6
      vertex 97.6 115.2 6
      vertex 97.6 150.2 0
    endloop
  endfacet
  facet normal 0.866025 0.5 0
    outer loop
      vertex 2.46795 9.6 6
      vertex 3.33397 8.1 6
      vertex 3.33397 8.1 0
    endloop
  endfacet
  facet normal 0.866025 0.5 0
    outer loop
      vertex 2.46795 9.6 0
      vertex 2.46795 9.6 6
      vertex 3.33397 8.1 0
    endloop
  endfacet
  facet normal 0.866025 -0.5 0
    outer loop
      vertex 3.33398 11.1 0
      vertex 3.33398 11.1 6
      vertex 2.46795 9.6 6
    endloop
  endfacet
  facet normal 0.866025 -0.5 0
    outer loop
      vertex 2.46795 9.6 0
      vertex 3.33398 11.1 0
      vertex 2.46795 9.6 6
    endloop
  endfacet
  facet normal -1.02558e-15 -1 -0
    outer loop
      vertex 5.06602 11.1 0
      vertex 5.06602 11.1 6
      vertex 3.33398 11.1 6
    endloop
  endfacet
  facet normal -1.02558e-15 -1 -0
    outer loop
      vertex 3.33398 11.1 0
      vertex 5.06602 11.1 0
      vertex 3.33398 11.1 6
    endloop
  endfacet
  facet normal -0.866025 -0.5 0
    outer loop
      vertex 5.93205 9.6 6
      vertex 5.06602 11.1 6
      vertex 5.93205 9.6 0
    endloop
  endfacet
  facet normal -0.866025 -0.5 0
    outer loop
      vertex 5.93205 9.6 0
      vertex 5.06602 11.1 6
      vertex 5.06602 11.1 0
    endloop
  endfacet
  facet normal -0.866025 0.5 0
    outer loop
      vertex 5.93205 9.6 6
      vertex 5.93205 9.6 0
      vertex 5.06602 8.1 6
    endloop
  endfacet
  facet normal -0.866025 0.5 0
    outer loop
      vertex 5.06602 8.1 6
      vertex 5.93205 9.6 0
      vertex 5.06602 8.1 0
    endloop
  endfacet
  facet normal 1.02558e-15 1 -0
    outer loop
      vertex 5.06602 8.1 6
      vertex 5.06602 8.1 0
      vertex 3.33397 8.1 6
    endloop
  endfacet
  facet normal 1.02558e-15 1 -0
    outer loop
      vertex 3.33397 8.1 6
      vertex 5.06602 8.1 0
      vertex 3.33397 8.1 0
    endloop
  endfacet
  facet normal 0.866025 0.5 0
    outer loop
      vertex 5.46795 127.2 6
      vertex 6.33397 125.7 6
      vertex 6.33397 125.7 0
    endloop
  endfacet
  facet normal 0.866025 0.5 0
    outer loop
      vertex 5.46795 127.2 0
      vertex 5.46795 127.2 6
      vertex 6.33397 125.7 0
    endloop
  endfacet
  facet normal 0.866025 -0.5 0
    outer loop
      vertex 6.33397 128.7 0
      vertex 6.33397 128.7 6
      vertex 5.46795 127.2 6
    endloop
  endfacet
  facet normal 0.866025 -0.5 0
    outer loop
      vertex 5.46795 127.2 0
      vertex 6.33397 128.7 0
      vertex 5.46795 127.2 6
    endloop
  endfacet
  facet normal -1.64093e-14 -1 -0
    outer loop
      vertex 8.06602 128.7 0
      vertex 8.06602 128.7 6
      vertex 6.33397 128.7 6
    endloop
  endfacet
  facet normal -1.64093e-14 -1 -0
    outer loop
      vertex 6.33397 128.7 0
      vertex 8.06602 128.7 0
      vertex 6.33397 128.7 6
    endloop
  endfacet
  facet normal -0.866025 -0.5 0
    outer loop
      vertex 8.93205 127.2 6
      vertex 8.06602 128.7 6
      vertex 8.93205 127.2 0
    endloop
  endfacet
  facet normal -0.866025 -0.5 0
    outer loop
      vertex 8.93205 127.2 0
      vertex 8.06602 128.7 6
      vertex 8.06602 128.7 0
    endloop
  endfacet
  facet normal -0.866025 0.5 0
    outer loop
      vertex 8.93205 127.2 6
      vertex 8.93205 127.2 0
      vertex 8.06602 125.7 6
    endloop
  endfacet
  facet normal -0.866025 0.5 0
    outer loop
      vertex 8.06602 125.7 6
      vertex 8.93205 127.2 0
      vertex 8.06602 125.7 0
    endloop
  endfacet
  facet normal 8.20464e-15 1 -0
    outer loop
      vertex 8.06602 125.7 6
      vertex 8.06602 125.7 0
      vertex 6.33397 125.7 6
    endloop
  endfacet
  facet normal 8.20464e-15 1 -0
    outer loop
      vertex 6.33397 125.7 6
      vertex 8.06602 125.7 0
      vertex 6.33397 125.7 0
    endloop
  endfacet
  facet normal 0.92388 0.382683 0
    outer loop
      vertex 15.4435 30.1 3
      vertex 16.0458 28.6458 3
      vertex 16.0458 28.6458 0
    endloop
  endfacet
  facet normal 0.92388 0.382683 0
    outer loop
      vertex 15.4435 30.1 0
      vertex 15.4435 30.1 3
      vertex 16.0458 28.6458 0
    endloop
  endfacet
  facet normal 0.92388 -0.382683 0
    outer loop
      vertex 16.0458 31.5542 0
      vertex 16.0458 31.5542 3
      vertex 15.4435 30.1 3
    endloop
  endfacet
  facet normal 0.92388 -0.382683 0
    outer loop
      vertex 15.4435 30.1 0
      vertex 16.0458 31.5542 0
      vertex 15.4435 30.1 3
    endloop
  endfacet
  facet normal 0.382683 -0.92388 0
    outer loop
      vertex 17.5 32.1565 0
      vertex 17.5 32.1565 3
      vertex 16.0458 31.5542 3
    endloop
  endfacet
  facet normal 0.382683 -0.92388 0
    outer loop
      vertex 16.0458 31.5542 0
      vertex 17.5 32.1565 0
      vertex 16.0458 31.5542 3
    endloop
  endfacet
  facet normal -0.382683 -0.92388 -0
    outer loop
      vertex 18.9542 31.5542 0
      vertex 18.9542 31.5542 3
      vertex 17.5 32.1565 3
    endloop
  endfacet
  facet normal -0.382683 -0.92388 -0
    outer loop
      vertex 17.5 32.1565 0
      vertex 18.9542 31.5542 0
      vertex 17.5 32.1565 3
    endloop
  endfacet
  facet normal -0.92388 -0.382683 0
    outer loop
      vertex 19.5565 30.1 3
      vertex 18.9542 31.5542 3
      vertex 19.5565 30.1 0
    endloop
  endfacet
  facet normal -0.92388 -0.382683 0
    outer loop
      vertex 19.5565 30.1 0
      vertex 18.9542 31.5542 3
      vertex 18.9542 31.5542 0
    endloop
  endfacet
  facet normal -0.92388 0.382683 0
    outer loop
      vertex 19.5565 30.1 3
      vertex 19.5565 30.1 0
      vertex 18.9542 28.6458 3
    endloop
  endfacet
  facet normal -0.92388 0.382683 0
    outer loop
      vertex 18.9542 28.6458 3
      vertex 19.5565 30.1 0
      vertex 18.9542 28.6458 0
    endloop
  endfacet
  facet normal -0.382683 0.92388 0
    outer loop
      vertex 18.9542 28.6458 3
      vertex 18.9542 28.6458 0
      vertex 17.5 28.0435 3
    endloop
  endfacet
  facet normal -0.382683 0.92388 0
    outer loop
      vertex 17.5 28.0435 3
      vertex 18.9542 28.6458 0
      vertex 17.5 28.0435 0
    endloop
  endfacet
  facet normal 0.382683 0.92388 -0
    outer loop
      vertex 17.5 28.0435 3
      vertex 17.5 28.0435 0
      vertex 16.0458 28.6458 3
    endloop
  endfacet
  facet normal 0.382683 0.92388 -0
    outer loop
      vertex 16.0458 28.6458 3
      vertex 17.5 28.0435 0
      vertex 16.0458 28.6458 0
    endloop
  endfacet
  facet normal 0.92388 -0.382683 0
    outer loop
      vertex 25.6458 145.254 0
      vertex 25.6458 145.254 3
      vertex 25.0435 143.8 3
    endloop
  endfacet
  facet normal 0.92388 -0.382683 0
    outer loop
      vertex 25.0435 143.8 0
      vertex 25.6458 145.254 0
      vertex 25.0435 143.8 3
    endloop
  endfacet
  facet normal 0.92388 0.382683 0
    outer loop
      vertex 25.0435 143.8 3
      vertex 25.6458 142.346 3
      vertex 25.6458 142.346 0
    endloop
  endfacet
  facet normal 0.92388 0.382683 0
    outer loop
      vertex 25.0435 143.8 0
      vertex 25.0435 143.8 3
      vertex 25.6458 142.346 0
    endloop
  endfacet
  facet normal 0.382683 -0.92388 0
    outer loop
      vertex 27.1 145.857 0
      vertex 27.1 145.857 3
      vertex 25.6458 145.254 3
    endloop
  endfacet
  facet normal 0.382683 -0.92388 0
    outer loop
      vertex 25.6458 145.254 0
      vertex 27.1 145.857 0
      vertex 25.6458 145.254 3
    endloop
  endfacet
  facet normal -0.382683 -0.92388 -0
    outer loop
      vertex 28.5542 145.254 0
      vertex 28.5542 145.254 3
      vertex 27.1 145.857 3
    endloop
  endfacet
  facet normal -0.382683 -0.92388 -0
    outer loop
      vertex 27.1 145.857 0
      vertex 28.5542 145.254 0
      vertex 27.1 145.857 3
    endloop
  endfacet
  facet normal -0.92388 -0.382683 0
    outer loop
      vertex 29.1565 143.8 3
      vertex 28.5542 145.254 3
      vertex 29.1565 143.8 0
    endloop
  endfacet
  facet normal -0.92388 -0.382683 0
    outer loop
      vertex 29.1565 143.8 0
      vertex 28.5542 145.254 3
      vertex 28.5542 145.254 0
    endloop
  endfacet
  facet normal -0.92388 0.382683 0
    outer loop
      vertex 29.1565 143.8 3
      vertex 29.1565 143.8 0
      vertex 28.5542 142.346 3
    endloop
  endfacet
  facet normal -0.92388 0.382683 0
    outer loop
      vertex 28.5542 142.346 3
      vertex 29.1565 143.8 0
      vertex 28.5542 142.346 0
    endloop
  endfacet
  facet normal -0.382683 0.92388 0
    outer loop
      vertex 28.5542 142.346 3
      vertex 28.5542 142.346 0
      vertex 27.1 141.743 3
    endloop
  endfacet
  facet normal -0.382683 0.92388 0
    outer loop
      vertex 27.1 141.743 3
      vertex 28.5542 142.346 0
      vertex 27.1 141.743 0
    endloop
  endfacet
  facet normal 0.382683 0.92388 -0
    outer loop
      vertex 27.1 141.743 3
      vertex 27.1 141.743 0
      vertex 25.6458 142.346 3
    endloop
  endfacet
  facet normal 0.382683 0.92388 -0
    outer loop
      vertex 25.6458 142.346 3
      vertex 27.1 141.743 0
      vertex 25.6458 142.346 0
    endloop
  endfacet
  facet normal 0.92388 0.382683 0
    outer loop
      vertex 89.3435 6.1 3
      vertex 89.9458 4.6458 3
      vertex 89.9458 4.6458 0
    endloop
  endfacet
  facet normal 0.92388 0.382683 0
    outer loop
      vertex 89.3435 6.1 0
      vertex 89.3435 6.1 3
      vertex 89.9458 4.6458 0
    endloop
  endfacet
  facet normal 0.92388 -0.382683 0
    outer loop
      vertex 89.9458 7.5542 0
      vertex 89.9458 7.5542 3
      vertex 89.3435 6.1 3
    endloop
  endfacet
  facet normal 0.92388 -0.382683 0
    outer loop
      vertex 89.3435 6.1 0
      vertex 89.9458 7.5542 0
      vertex 89.3435 6.1 3
    endloop
  endfacet
  facet normal 0.382683 -0.92388 0
    outer loop
      vertex 91.4 8.15654 0
      vertex 91.4 8.15654 3
      vertex 89.9458 7.5542 3
    endloop
  endfacet
  facet normal 0.382683 -0.92388 0
    outer loop
      vertex 89.9458 7.5542 0
      vertex 91.4 8.15654 0
      vertex 89.9458 7.5542 3
    endloop
  endfacet
  facet normal -0.382683 -0.92388 -0
    outer loop
      vertex 92.8542 7.5542 0
      vertex 92.8542 7.5542 3
      vertex 91.4 8.15654 3
    endloop
  endfacet
  facet normal -0.382683 -0.92388 -0
    outer loop
      vertex 91.4 8.15654 0
      vertex 92.8542 7.5542 0
      vertex 91.4 8.15654 3
    endloop
  endfacet
  facet normal -0.92388 -0.382683 0
    outer loop
      vertex 93.4565 6.1 3
      vertex 92.8542 7.5542 3
      vertex 93.4565 6.1 0
    endloop
  endfacet
  facet normal -0.92388 -0.382683 0
    outer loop
      vertex 93.4565 6.1 0
      vertex 92.8542 7.5542 3
      vertex 92.8542 7.5542 0
    endloop
  endfacet
  facet normal -0.92388 0.382683 0
    outer loop
      vertex 93.4565 6.1 3
      vertex 93.4565 6.1 0
      vertex 92.8542 4.6458 3
    endloop
  endfacet
  facet normal -0.92388 0.382683 0
    outer loop
      vertex 92.8542 4.6458 3
      vertex 93.4565 6.1 0
      vertex 92.8542 4.6458 0
    endloop
  endfacet
  facet normal -0.382683 0.92388 0
    outer loop
      vertex 92.8542 4.6458 3
      vertex 92.8542 4.6458 0
      vertex 91.4 4.04345 3
    endloop
  endfacet
  facet normal -0.382683 0.92388 0
    outer loop
      vertex 91.4 4.04345 3
      vertex 92.8542 4.6458 0
      vertex 91.4 4.04345 0
    endloop
  endfacet
  facet normal 0.382683 0.92388 -0
    outer loop
      vertex 91.4 4.04345 3
      vertex 91.4 4.04345 0
      vertex 89.9458 4.6458 3
    endloop
  endfacet
  facet normal 0.382683 0.92388 -0
    outer loop
      vertex 89.9458 4.6458 3
      vertex 91.4 4.04345 0
      vertex 89.9458 4.6458 0
    endloop
  endfacet
  facet normal 0.92388 0.382683 0
    outer loop
      vertex 89.3435 143.8 3
      vertex 89.9458 142.346 3
      vertex 89.9458 142.346 0
    endloop
  endfacet
  facet normal 0.92388 0.382683 0
    outer loop
      vertex 89.3435 143.8 0
      vertex 89.3435 143.8 3
      vertex 89.9458 142.346 0
    endloop
  endfacet
  facet normal 0.92388 -0.382683 0
    outer loop
      vertex 89.9458 145.254 0
      vertex 89.9458 145.254 3
      vertex 89.3435 143.8 3
    endloop
  endfacet
  facet normal 0.92388 -0.382683 0
    outer loop
      vertex 89.3435 143.8 0
      vertex 89.9458 145.254 0
      vertex 89.3435 143.8 3
    endloop
  endfacet
  facet normal 0.382683 -0.92388 0
    outer loop
      vertex 91.4 145.857 0
      vertex 91.4 145.857 3
      vertex 89.9458 145.254 3
    endloop
  endfacet
  facet normal 0.382683 -0.92388 0
    outer loop
      vertex 89.9458 145.254 0
      vertex 91.4 145.857 0
      vertex 89.9458 145.254 3
    endloop
  endfacet
  facet normal -0.382683 -0.92388 -0
    outer loop
      vertex 92.8542 145.254 0
      vertex 92.8542 145.254 3
      vertex 91.4 145.857 3
    endloop
  endfacet
  facet normal -0.382683 -0.92388 -0
    outer loop
      vertex 91.4 145.857 0
      vertex 92.8542 145.254 0
      vertex 91.4 145.857 3
    endloop
  endfacet
  facet normal -0.92388 -0.382683 0
    outer loop
      vertex 93.4565 143.8 3
      vertex 92.8542 145.254 3
      vertex 93.4565 143.8 0
    endloop
  endfacet
  facet normal -0.92388 -0.382683 0
    outer loop
      vertex 93.4565 143.8 0
      vertex 92.8542 145.254 3
      vertex 92.8542 145.254 0
    endloop
  endfacet
  facet normal -0.92388 0.382683 0
    outer loop
      vertex 93.4565 143.8 3
      vertex 93.4565 143.8 0
      vertex 92.8542 142.346 3
    endloop
  endfacet
  facet normal -0.92388 0.382683 0
    outer loop
      vertex 92.8542 142.346 3
      vertex 93.4565 143.8 0
      vertex 92.8542 142.346 0
    endloop
  endfacet
  facet normal -0.382683 0.92388 0
    outer loop
      vertex 92.8542 142.346 3
      vertex 92.8542 142.346 0
      vertex 91.4 141.743 3
    endloop
  endfacet
  facet normal -0.382683 0.92388 0
    outer loop
      vertex 91.4 141.743 3
      vertex 92.8542 142.346 0
      vertex 91.4 141.743 0
    endloop
  endfacet
  facet normal 0.382683 0.92388 -0
    outer loop
      vertex 91.4 141.743 3
      vertex 91.4 141.743 0
      vertex 89.9458 142.346 3
    endloop
  endfacet
  facet normal 0.382683 0.92388 -0
    outer loop
      vertex 89.9458 142.346 3
      vertex 91.4 141.743 0
      vertex 89.9458 142.346 0
    endloop
  endfacet
  facet normal 0.866025 0.5 0
    outer loop
      vertex 90.4679 127.2 6
      vertex 91.334 125.7 6
      vertex 91.334 125.7 0
    endloop
  endfacet
  facet normal 0.866025 0.5 0
    outer loop
      vertex 90.4679 127.2 0
      vertex 90.4679 127.2 6
      vertex 91.334 125.7 0
    endloop
  endfacet
  facet normal 0.866025 -0.5 0
    outer loop
      vertex 91.334 128.7 0
      vertex 91.334 128.7 6
      vertex 90.4679 127.2 6
    endloop
  endfacet
  facet normal 0.866025 -0.5 0
    outer loop
      vertex 90.4679 127.2 0
      vertex 91.334 128.7 0
      vertex 90.4679 127.2 6
    endloop
  endfacet
  facet normal -1.64093e-14 -1 -0
    outer loop
      vertex 93.066 128.7 0
      vertex 93.066 128.7 6
      vertex 91.334 128.7 6
    endloop
  endfacet
  facet normal -1.64093e-14 -1 -0
    outer loop
      vertex 91.334 128.7 0
      vertex 93.066 128.7 0
      vertex 91.334 128.7 6
    endloop
  endfacet
  facet normal -0.866025 -0.5 0
    outer loop
      vertex 93.9321 127.2 6
      vertex 93.066 128.7 6
      vertex 93.9321 127.2 0
    endloop
  endfacet
  facet normal -0.866025 -0.5 0
    outer loop
      vertex 93.9321 127.2 0
      vertex 93.066 128.7 6
      vertex 93.066 128.7 0
    endloop
  endfacet
  facet normal -0.866025 0.5 0
    outer loop
      vertex 93.9321 127.2 6
      vertex 93.9321 127.2 0
      vertex 93.066 125.7 6
    endloop
  endfacet
  facet normal -0.866025 0.5 0
    outer loop
      vertex 93.066 125.7 6
      vertex 93.9321 127.2 0
      vertex 93.066 125.7 0
    endloop
  endfacet
  facet normal 8.20464e-15 1 -0
    outer loop
      vertex 93.066 125.7 6
      vertex 93.066 125.7 0
      vertex 91.334 125.7 6
    endloop
  endfacet
  facet normal 8.20464e-15 1 -0
    outer loop
      vertex 91.334 125.7 6
      vertex 93.066 125.7 0
      vertex 91.334 125.7 0
    endloop
  endfacet
  facet normal 0.974928 0.222521 0
    outer loop
      vertex 13.91 30.1 6
      vertex 14.2655 28.5424 6
      vertex 14.2655 28.5424 3
    endloop
  endfacet
  facet normal 0.974928 0.222521 0
    outer loop
      vertex 13.91 30.1 3
      vertex 13.91 30.1 6
      vertex 14.2655 28.5424 3
    endloop
  endfacet
  facet normal 0.781831 0.62349 0
    outer loop
      vertex 14.2655 28.5424 6
      vertex 15.2617 27.2932 6
      vertex 15.2617 27.2932 3
    endloop
  endfacet
  facet normal 0.781831 0.62349 0
    outer loop
      vertex 14.2655 28.5424 3
      vertex 14.2655 28.5424 6
      vertex 15.2617 27.2932 3
    endloop
  endfacet
  facet normal 0.433884 0.900969 -0
    outer loop
      vertex 16.7011 26.6 6
      vertex 16.7011 26.6 3
      vertex 15.2617 27.2932 6
    endloop
  endfacet
  facet normal 0.433884 0.900969 -0
    outer loop
      vertex 15.2617 27.2932 6
      vertex 16.7011 26.6 3
      vertex 15.2617 27.2932 3
    endloop
  endfacet
  facet normal 2.22364e-15 1 -0
    outer loop
      vertex 18.2989 26.6 6
      vertex 18.2989 26.6 3
      vertex 16.7011 26.6 6
    endloop
  endfacet
  facet normal 2.22364e-15 1 -0
    outer loop
      vertex 16.7011 26.6 6
      vertex 18.2989 26.6 3
      vertex 16.7011 26.6 3
    endloop
  endfacet
  facet normal -0.433884 0.900969 0
    outer loop
      vertex 19.7383 27.2932 6
      vertex 19.7383 27.2932 3
      vertex 18.2989 26.6 6
    endloop
  endfacet
  facet normal -0.433884 0.900969 0
    outer loop
      vertex 18.2989 26.6 6
      vertex 19.7383 27.2932 3
      vertex 18.2989 26.6 3
    endloop
  endfacet
  facet normal -0.781831 0.62349 0
    outer loop
      vertex 20.7345 28.5424 6
      vertex 20.7345 28.5424 3
      vertex 19.7383 27.2932 6
    endloop
  endfacet
  facet normal -0.781831 0.62349 0
    outer loop
      vertex 19.7383 27.2932 6
      vertex 20.7345 28.5424 3
      vertex 19.7383 27.2932 3
    endloop
  endfacet
  facet normal -0.974928 0.222521 0
    outer loop
      vertex 21.09 30.1 6
      vertex 21.09 30.1 3
      vertex 20.7345 28.5424 6
    endloop
  endfacet
  facet normal -0.974928 0.222521 0
    outer loop
      vertex 20.7345 28.5424 6
      vertex 21.09 30.1 3
      vertex 20.7345 28.5424 3
    endloop
  endfacet
  facet normal -0.974928 -0.222521 0
    outer loop
      vertex 21.09 30.1 6
      vertex 20.7345 31.6576 6
      vertex 21.09 30.1 3
    endloop
  endfacet
  facet normal -0.974928 -0.222521 0
    outer loop
      vertex 21.09 30.1 3
      vertex 20.7345 31.6576 6
      vertex 20.7345 31.6576 3
    endloop
  endfacet
  facet normal -0.781831 -0.62349 0
    outer loop
      vertex 20.7345 31.6576 6
      vertex 19.7383 32.9068 6
      vertex 20.7345 31.6576 3
    endloop
  endfacet
  facet normal -0.781831 -0.62349 0
    outer loop
      vertex 20.7345 31.6576 3
      vertex 19.7383 32.9068 6
      vertex 19.7383 32.9068 3
    endloop
  endfacet
  facet normal -0.433884 -0.900969 -0
    outer loop
      vertex 19.7383 32.9068 3
      vertex 19.7383 32.9068 6
      vertex 18.2989 33.6 6
    endloop
  endfacet
  facet normal -0.433884 -0.900969 -0
    outer loop
      vertex 18.2989 33.6 3
      vertex 19.7383 32.9068 3
      vertex 18.2989 33.6 6
    endloop
  endfacet
  facet normal -4.44727e-15 -1 -0
    outer loop
      vertex 18.2989 33.6 3
      vertex 18.2989 33.6 6
      vertex 16.7011 33.6 6
    endloop
  endfacet
  facet normal -4.44727e-15 -1 -0
    outer loop
      vertex 16.7011 33.6 3
      vertex 18.2989 33.6 3
      vertex 16.7011 33.6 6
    endloop
  endfacet
  facet normal 0.433884 -0.900969 0
    outer loop
      vertex 16.7011 33.6 3
      vertex 16.7011 33.6 6
      vertex 15.2617 32.9068 6
    endloop
  endfacet
  facet normal 0.433884 -0.900969 0
    outer loop
      vertex 15.2617 32.9068 3
      vertex 16.7011 33.6 3
      vertex 15.2617 32.9068 6
    endloop
  endfacet
  facet normal 0.781831 -0.62349 0
    outer loop
      vertex 15.2617 32.9068 3
      vertex 15.2617 32.9068 6
      vertex 14.2655 31.6576 6
    endloop
  endfacet
  facet normal 0.781831 -0.62349 0
    outer loop
      vertex 14.2655 31.6576 3
      vertex 15.2617 32.9068 3
      vertex 14.2655 31.6576 6
    endloop
  endfacet
  facet normal 0.974928 -0.222521 0
    outer loop
      vertex 14.2655 31.6576 3
      vertex 14.2655 31.6576 6
      vertex 13.91 30.1 6
    endloop
  endfacet
  facet normal 0.974928 -0.222521 0
    outer loop
      vertex 13.91 30.1 3
      vertex 14.2655 31.6576 3
      vertex 13.91 30.1 6
    endloop
  endfacet
  facet normal 0.974928 0.222521 0
    outer loop
      vertex 23.51 143.8 6
      vertex 23.8655 142.242 6
      vertex 23.8655 142.242 3
    endloop
  endfacet
  facet normal 0.974928 0.222521 0
    outer loop
      vertex 23.51 143.8 3
      vertex 23.51 143.8 6
      vertex 23.8655 142.242 3
    endloop
  endfacet
  facet normal 0.781831 0.62349 0
    outer loop
      vertex 23.8655 142.242 6
      vertex 24.8617 140.993 6
      vertex 24.8617 140.993 3
    endloop
  endfacet
  facet normal 0.781831 0.62349 0
    outer loop
      vertex 23.8655 142.242 3
      vertex 23.8655 142.242 6
      vertex 24.8617 140.993 3
    endloop
  endfacet
  facet normal 0.433884 0.900969 -0
    outer loop
      vertex 26.3011 140.3 6
      vertex 26.3011 140.3 3
      vertex 24.8617 140.993 6
    endloop
  endfacet
  facet normal 0.433884 0.900969 -0
    outer loop
      vertex 24.8617 140.993 6
      vertex 26.3011 140.3 3
      vertex 24.8617 140.993 3
    endloop
  endfacet
  facet normal 1.77891e-14 1 -0
    outer loop
      vertex 27.8989 140.3 6
      vertex 27.8989 140.3 3
      vertex 26.3011 140.3 6
    endloop
  endfacet
  facet normal 1.77891e-14 1 -0
    outer loop
      vertex 26.3011 140.3 6
      vertex 27.8989 140.3 3
      vertex 26.3011 140.3 3
    endloop
  endfacet
  facet normal -0.433884 0.900969 0
    outer loop
      vertex 29.3383 140.993 6
      vertex 29.3383 140.993 3
      vertex 27.8989 140.3 6
    endloop
  endfacet
  facet normal -0.433884 0.900969 0
    outer loop
      vertex 27.8989 140.3 6
      vertex 29.3383 140.993 3
      vertex 27.8989 140.3 3
    endloop
  endfacet
  facet normal -0.781831 0.62349 0
    outer loop
      vertex 30.3345 142.242 6
      vertex 30.3345 142.242 3
      vertex 29.3383 140.993 6
    endloop
  endfacet
  facet normal -0.781831 0.62349 0
    outer loop
      vertex 29.3383 140.993 6
      vertex 30.3345 142.242 3
      vertex 29.3383 140.993 3
    endloop
  endfacet
  facet normal -0.974928 0.222521 0
    outer loop
      vertex 30.69 143.8 6
      vertex 30.69 143.8 3
      vertex 30.3345 142.242 6
    endloop
  endfacet
  facet normal -0.974928 0.222521 0
    outer loop
      vertex 30.3345 142.242 6
      vertex 30.69 143.8 3
      vertex 30.3345 142.242 3
    endloop
  endfacet
  facet normal -0.974928 -0.222521 0
    outer loop
      vertex 30.69 143.8 6
      vertex 30.3345 145.358 6
      vertex 30.69 143.8 3
    endloop
  endfacet
  facet normal -0.974928 -0.222521 0
    outer loop
      vertex 30.69 143.8 3
      vertex 30.3345 145.358 6
      vertex 30.3345 145.358 3
    endloop
  endfacet
  facet normal -0.781831 -0.62349 0
    outer loop
      vertex 30.3345 145.358 6
      vertex 29.3383 146.607 6
      vertex 30.3345 145.358 3
    endloop
  endfacet
  facet normal -0.781831 -0.62349 0
    outer loop
      vertex 30.3345 145.358 3
      vertex 29.3383 146.607 6
      vertex 29.3383 146.607 3
    endloop
  endfacet
  facet normal -0.433884 -0.900969 -0
    outer loop
      vertex 29.3383 146.607 3
      vertex 29.3383 146.607 6
      vertex 27.8989 147.3 6
    endloop
  endfacet
  facet normal -0.433884 -0.900969 -0
    outer loop
      vertex 27.8989 147.3 3
      vertex 29.3383 146.607 3
      vertex 27.8989 147.3 6
    endloop
  endfacet
  facet normal -1.77891e-14 -1 -0
    outer loop
      vertex 27.8989 147.3 3
      vertex 27.8989 147.3 6
      vertex 26.3011 147.3 6
    endloop
  endfacet
  facet normal -1.77891e-14 -1 -0
    outer loop
      vertex 26.3011 147.3 3
      vertex 27.8989 147.3 3
      vertex 26.3011 147.3 6
    endloop
  endfacet
  facet normal 0.433884 -0.900969 0
    outer loop
      vertex 26.3011 147.3 3
      vertex 26.3011 147.3 6
      vertex 24.8617 146.607 6
    endloop
  endfacet
  facet normal 0.433884 -0.900969 0
    outer loop
      vertex 24.8617 146.607 3
      vertex 26.3011 147.3 3
      vertex 24.8617 146.607 6
    endloop
  endfacet
  facet normal 0.781831 -0.62349 0
    outer loop
      vertex 24.8617 146.607 3
      vertex 24.8617 146.607 6
      vertex 23.8655 145.358 6
    endloop
  endfacet
  facet normal 0.781831 -0.62349 0
    outer loop
      vertex 23.8655 145.358 3
      vertex 24.8617 146.607 3
      vertex 23.8655 145.358 6
    endloop
  endfacet
  facet normal 0.974928 -0.222521 0
    outer loop
      vertex 23.8655 145.358 3
      vertex 23.8655 145.358 6
      vertex 23.51 143.8 6
    endloop
  endfacet
  facet normal 0.974928 -0.222521 0
    outer loop
      vertex 23.51 143.8 3
      vertex 23.8655 145.358 3
      vertex 23.51 143.8 6
    endloop
  endfacet
  facet normal 0.974928 0.222521 0
    outer loop
      vertex 87.81 6.1 6
      vertex 88.1655 4.54235 6
      vertex 88.1655 4.54235 3
    endloop
  endfacet
  facet normal 0.974928 0.222521 0
    outer loop
      vertex 87.81 6.1 3
      vertex 87.81 6.1 6
      vertex 88.1655 4.54235 3
    endloop
  endfacet
  facet normal 0.781831 0.62349 0
    outer loop
      vertex 88.1655 4.54235 6
      vertex 89.1617 3.29322 6
      vertex 89.1617 3.29322 3
    endloop
  endfacet
  facet normal 0.781831 0.62349 0
    outer loop
      vertex 88.1655 4.54235 3
      vertex 88.1655 4.54235 6
      vertex 89.1617 3.29322 3
    endloop
  endfacet
  facet normal 0.433884 0.900969 -0
    outer loop
      vertex 90.6011 2.6 6
      vertex 90.6011 2.6 3
      vertex 89.1617 3.29322 6
    endloop
  endfacet
  facet normal 0.433884 0.900969 -0
    outer loop
      vertex 89.1617 3.29322 6
      vertex 90.6011 2.6 3
      vertex 89.1617 3.29322 3
    endloop
  endfacet
  facet normal 2.77955e-16 1 -0
    outer loop
      vertex 92.1989 2.6 6
      vertex 92.1989 2.6 3
      vertex 90.6011 2.6 6
    endloop
  endfacet
  facet normal 2.77955e-16 1 -0
    outer loop
      vertex 90.6011 2.6 6
      vertex 92.1989 2.6 3
      vertex 90.6011 2.6 3
    endloop
  endfacet
  facet normal -0.433884 0.900969 0
    outer loop
      vertex 93.6383 3.29322 6
      vertex 93.6383 3.29322 3
      vertex 92.1989 2.6 6
    endloop
  endfacet
  facet normal -0.433884 0.900969 0
    outer loop
      vertex 92.1989 2.6 6
      vertex 93.6383 3.29322 3
      vertex 92.1989 2.6 3
    endloop
  endfacet
  facet normal -0.781831 0.62349 0
    outer loop
      vertex 94.6345 4.54235 6
      vertex 94.6345 4.54235 3
      vertex 93.6383 3.29322 6
    endloop
  endfacet
  facet normal -0.781831 0.62349 0
    outer loop
      vertex 93.6383 3.29322 6
      vertex 94.6345 4.54235 3
      vertex 93.6383 3.29322 3
    endloop
  endfacet
  facet normal -0.974928 0.222521 0
    outer loop
      vertex 94.99 6.1 6
      vertex 94.99 6.1 3
      vertex 94.6345 4.54235 6
    endloop
  endfacet
  facet normal -0.974928 0.222521 0
    outer loop
      vertex 94.6345 4.54235 6
      vertex 94.99 6.1 3
      vertex 94.6345 4.54235 3
    endloop
  endfacet
  facet normal -0.974928 -0.222521 0
    outer loop
      vertex 94.99 6.1 6
      vertex 94.6345 7.65765 6
      vertex 94.99 6.1 3
    endloop
  endfacet
  facet normal -0.974928 -0.222521 0
    outer loop
      vertex 94.99 6.1 3
      vertex 94.6345 7.65765 6
      vertex 94.6345 7.65765 3
    endloop
  endfacet
  facet normal -0.781831 -0.62349 0
    outer loop
      vertex 94.6345 7.65765 6
      vertex 93.6383 8.90678 6
      vertex 94.6345 7.65765 3
    endloop
  endfacet
  facet normal -0.781831 -0.62349 0
    outer loop
      vertex 94.6345 7.65765 3
      vertex 93.6383 8.90678 6
      vertex 93.6383 8.90678 3
    endloop
  endfacet
  facet normal -0.433884 -0.900969 -0
    outer loop
      vertex 93.6383 8.90678 3
      vertex 93.6383 8.90678 6
      vertex 92.1989 9.6 6
    endloop
  endfacet
  facet normal -0.433884 -0.900969 -0
    outer loop
      vertex 92.1989 9.6 3
      vertex 93.6383 8.90678 3
      vertex 92.1989 9.6 6
    endloop
  endfacet
  facet normal -1.11182e-15 -1 -0
    outer loop
      vertex 92.1989 9.6 3
      vertex 92.1989 9.6 6
      vertex 90.6011 9.6 6
    endloop
  endfacet
  facet normal -1.11182e-15 -1 -0
    outer loop
      vertex 90.6011 9.6 3
      vertex 92.1989 9.6 3
      vertex 90.6011 9.6 6
    endloop
  endfacet
  facet normal 0.433884 -0.900969 0
    outer loop
      vertex 90.6011 9.6 3
      vertex 90.6011 9.6 6
      vertex 89.1617 8.90678 6
    endloop
  endfacet
  facet normal 0.433884 -0.900969 0
    outer loop
      vertex 89.1617 8.90678 3
      vertex 90.6011 9.6 3
      vertex 89.1617 8.90678 6
    endloop
  endfacet
  facet normal 0.781831 -0.62349 0
    outer loop
      vertex 89.1617 8.90678 3
      vertex 89.1617 8.90678 6
      vertex 88.1655 7.65765 6
    endloop
  endfacet
  facet normal 0.781831 -0.62349 0
    outer loop
      vertex 88.1655 7.65765 3
      vertex 89.1617 8.90678 3
      vertex 88.1655 7.65765 6
    endloop
  endfacet
  facet normal 0.974928 -0.222521 0
    outer loop
      vertex 88.1655 7.65765 3
      vertex 88.1655 7.65765 6
      vertex 87.81 6.1 6
    endloop
  endfacet
  facet normal 0.974928 -0.222521 0
    outer loop
      vertex 87.81 6.1 3
      vertex 88.1655 7.65765 3
      vertex 87.81 6.1 6
    endloop
  endfacet
  facet normal 0.974928 0.222521 0
    outer loop
      vertex 87.81 143.8 6
      vertex 88.1655 142.242 6
      vertex 88.1655 142.242 3
    endloop
  endfacet
  facet normal 0.974928 0.222521 0
    outer loop
      vertex 87.81 143.8 3
      vertex 87.81 143.8 6
      vertex 88.1655 142.242 3
    endloop
  endfacet
  facet normal 0.781831 0.62349 0
    outer loop
      vertex 88.1655 142.242 6
      vertex 89.1617 140.993 6
      vertex 89.1617 140.993 3
    endloop
  endfacet
  facet normal 0.781831 0.62349 0
    outer loop
      vertex 88.1655 142.242 3
      vertex 88.1655 142.242 6
      vertex 89.1617 140.993 3
    endloop
  endfacet
  facet normal 0.433884 0.900969 -0
    outer loop
      vertex 90.6011 140.3 6
      vertex 90.6011 140.3 3
      vertex 89.1617 140.993 6
    endloop
  endfacet
  facet normal 0.433884 0.900969 -0
    outer loop
      vertex 89.1617 140.993 6
      vertex 90.6011 140.3 3
      vertex 89.1617 140.993 3
    endloop
  endfacet
  facet normal 1.77891e-14 1 -0
    outer loop
      vertex 92.1989 140.3 6
      vertex 92.1989 140.3 3
      vertex 90.6011 140.3 6
    endloop
  endfacet
  facet normal 1.77891e-14 1 -0
    outer loop
      vertex 90.6011 140.3 6
      vertex 92.1989 140.3 3
      vertex 90.6011 140.3 3
    endloop
  endfacet
  facet normal -0.433884 0.900969 0
    outer loop
      vertex 93.6383 140.993 6
      vertex 93.6383 140.993 3
      vertex 92.1989 140.3 6
    endloop
  endfacet
  facet normal -0.433884 0.900969 0
    outer loop
      vertex 92.1989 140.3 6
      vertex 93.6383 140.993 3
      vertex 92.1989 140.3 3
    endloop
  endfacet
  facet normal -0.781831 0.62349 0
    outer loop
      vertex 94.6345 142.242 6
      vertex 94.6345 142.242 3
      vertex 93.6383 140.993 6
    endloop
  endfacet
  facet normal -0.781831 0.62349 0
    outer loop
      vertex 93.6383 140.993 6
      vertex 94.6345 142.242 3
      vertex 93.6383 140.993 3
    endloop
  endfacet
  facet normal -0.974928 0.222521 0
    outer loop
      vertex 94.99 143.8 6
      vertex 94.99 143.8 3
      vertex 94.6345 142.242 6
    endloop
  endfacet
  facet normal -0.974928 0.222521 0
    outer loop
      vertex 94.6345 142.242 6
      vertex 94.99 143.8 3
      vertex 94.6345 142.242 3
    endloop
  endfacet
  facet normal -0.974928 -0.222521 0
    outer loop
      vertex 94.99 143.8 6
      vertex 94.6345 145.358 6
      vertex 94.99 143.8 3
    endloop
  endfacet
  facet normal -0.974928 -0.222521 0
    outer loop
      vertex 94.99 143.8 3
      vertex 94.6345 145.358 6
      vertex 94.6345 145.358 3
    endloop
  endfacet
  facet normal -0.781831 -0.62349 0
    outer loop
      vertex 94.6345 145.358 6
      vertex 93.6383 146.607 6
      vertex 94.6345 145.358 3
    endloop
  endfacet
  facet normal -0.781831 -0.62349 0
    outer loop
      vertex 94.6345 145.358 3
      vertex 93.6383 146.607 6
      vertex 93.6383 146.607 3
    endloop
  endfacet
  facet normal -0.433884 -0.900969 -0
    outer loop
      vertex 93.6383 146.607 3
      vertex 93.6383 146.607 6
      vertex 92.1989 147.3 6
    endloop
  endfacet
  facet normal -0.433884 -0.900969 -0
    outer loop
      vertex 92.1989 147.3 3
      vertex 93.6383 146.607 3
      vertex 92.1989 147.3 6
    endloop
  endfacet
  facet normal -1.77891e-14 -1 -0
    outer loop
      vertex 92.1989 147.3 3
      vertex 92.1989 147.3 6
      vertex 90.6011 147.3 6
    endloop
  endfacet
  facet normal -1.77891e-14 -1 -0
    outer loop
      vertex 90.6011 147.3 3
      vertex 92.1989 147.3 3
      vertex 90.6011 147.3 6
    endloop
  endfacet
  facet normal 0.433884 -0.900969 0
    outer loop
      vertex 90.6011 147.3 3
      vertex 90.6011 147.3 6
      vertex 89.1617 146.607 6
    endloop
  endfacet
  facet normal 0.433884 -0.900969 0
    outer loop
      vertex 89.1617 146.607 3
      vertex 90.6011 147.3 3
      vertex 89.1617 146.607 6
    endloop
  endfacet
  facet normal 0.781831 -0.62349 0
    outer loop
      vertex 89.1617 146.607 3
      vertex 89.1617 146.607 6
      vertex 88.1655 145.358 6
    endloop
  endfacet
  facet normal 0.781831 -0.62349 0
    outer loop
      vertex 88.1655 145.358 3
      vertex 89.1617 146.607 3
      vertex 88.1655 145.358 6
    endloop
  endfacet
  facet normal 0.974928 -0.222521 0
    outer loop
      vertex 88.1655 145.358 3
      vertex 88.1655 145.358 6
      vertex 87.81 143.8 6
    endloop
  endfacet
  facet normal 0.974928 -0.222521 0
    outer loop
      vertex 87.81 143.8 3
      vertex 88.1655 145.358 3
      vertex 87.81 143.8 6
    endloop
  endfacet
  facet normal 0 0 1
    outer loop
      vertex 14.2655 28.5424 3
      vertex 15.2617 27.2932 3
      vertex 16.7011 26.6 3
    endloop
  endfacet
  facet normal -0 0 1
    outer loop
      vertex 19.7383 27.2932 3
      vertex 14.2655 28.5424 3
      vertex 18.2989 26.6 3
    endloop
  endfacet
  facet normal 0 0 1
    outer loop
      vertex 18.2989 26.6 3
      vertex 14.2655 28.5424 3
      vertex 16.7011 26.6 3
    endloop
  endfacet
  facet normal -0 -0 1
    outer loop
      vertex 17.5 28.0435 3
      vertex 14.2655 28.5424 3
      vertex 19.7383 27.2932 3
    endloop
  endfacet
  facet normal 0 0 1
    outer loop
      vertex 17.5 28.0435 3
      vertex 16.0458 28.6458 3
      vertex 14.2655 28.5424 3
    endloop
  endfacet
  facet normal 0 -0 1
    outer loop
      vertex 15.2617 32.9068 3
      vertex 14.2655 28.5424 3
      vertex 16.7011 33.6 3
    endloop
  endfacet
  facet normal 0 -0 1
    outer loop
      vertex 14.2655 31.6576 3
      vertex 14.2655 28.5424 3
      vertex 15.2617 32.9068 3
    endloop
  endfacet
  facet normal 0 0 1
    outer loop
      vertex 13.91 30.1 3
      vertex 14.2655 28.5424 3
      vertex 14.2655 31.6576 3
    endloop
  endfacet
  facet normal 0 0 1
    outer loop
      vertex 17.5 32.1565 3
      vertex 18.9542 31.5542 3
      vertex 19.7383 32.9068 3
    endloop
  endfacet
  facet normal 0 0 1
    outer loop
      vertex 16.7011 33.6 3
      vertex 14.2655 28.5424 3
      vertex 15.4435 30.1 3
    endloop
  endfacet
  facet normal 0 -0 1
    outer loop
      vertex 16.7011 33.6 3
      vertex 16.0458 31.5542 3
      vertex 18.2989 33.6 3
    endloop
  endfacet
  facet normal 0 0 1
    outer loop
      vertex 16.7011 33.6 3
      vertex 15.4435 30.1 3
      vertex 16.0458 31.5542 3
    endloop
  endfacet
  facet normal 0 -0 1
    outer loop
      vertex 18.2989 33.6 3
      vertex 17.5 32.1565 3
      vertex 19.7383 32.9068 3
    endloop
  endfacet
  facet normal 0 0 1
    outer loop
      vertex 16.0458 31.5542 3
      vertex 17.5 32.1565 3
      vertex 18.2989 33.6 3
    endloop
  endfacet
  facet normal 0 -0 1
    outer loop
      vertex 19.7383 32.9068 3
      vertex 18.9542 31.5542 3
      vertex 20.7345 31.6576 3
    endloop
  endfacet
  facet normal 0 -0 1
    outer loop
      vertex 20.7345 31.6576 3
      vertex 19.5565 30.1 3
      vertex 21.09 30.1 3
    endloop
  endfacet
  facet normal 0 0 1
    outer loop
      vertex 21.09 30.1 3
      vertex 18.9542 28.6458 3
      vertex 20.7345 28.5424 3
    endloop
  endfacet
  facet normal 0 0 1
    outer loop
      vertex 20.7345 28.5424 3
      vertex 17.5 28.0435 3
      vertex 19.7383 27.2932 3
    endloop
  endfacet
  facet normal 0 0 1
    outer loop
      vertex 18.9542 31.5542 3
      vertex 19.5565 30.1 3
      vertex 20.7345 31.6576 3
    endloop
  endfacet
  facet normal 0 -0 1
    outer loop
      vertex 19.5565 30.1 3
      vertex 18.9542 28.6458 3
      vertex 21.09 30.1 3
    endloop
  endfacet
  facet normal 0 -0 1
    outer loop
      vertex 18.9542 28.6458 3
      vertex 17.5 28.0435 3
      vertex 20.7345 28.5424 3
    endloop
  endfacet
  facet normal -0 0 1
    outer loop
      vertex 16.0458 28.6458 3
      vertex 15.4435 30.1 3
      vertex 14.2655 28.5424 3
    endloop
  endfacet
  facet normal 0 0 1
    outer loop
      vertex 23.8655 142.242 3
      vertex 24.8617 140.993 3
      vertex 26.3011 140.3 3
    endloop
  endfacet
  facet normal -0 0 1
    outer loop
      vertex 29.3383 140.993 3
      vertex 23.8655 142.242 3
      vertex 27.8989 140.3 3
    endloop
  endfacet
  facet normal 0 0 1
    outer loop
      vertex 27.8989 140.3 3
      vertex 23.8655 142.242 3
      vertex 26.3011 140.3 3
    endloop
  endfacet
  facet normal -0 -0 1
    outer loop
      vertex 27.1 141.743 3
      vertex 23.8655 142.242 3
      vertex 29.3383 140.993 3
    endloop
  endfacet
  facet normal 0 0 1
    outer loop
      vertex 27.1 141.743 3
      vertex 25.6458 142.346 3
      vertex 23.8655 142.242 3
    endloop
  endfacet
  facet normal 0 -0 1
    outer loop
      vertex 24.8617 146.607 3
      vertex 23.8655 142.242 3
      vertex 26.3011 147.3 3
    endloop
  endfacet
  facet normal 0 -0 1
    outer loop
      vertex 23.8655 145.358 3
      vertex 23.8655 142.242 3
      vertex 24.8617 146.607 3
    endloop
  endfacet
  facet normal 0 0 1
    outer loop
      vertex 23.51 143.8 3
      vertex 23.8655 142.242 3
      vertex 23.8655 145.358 3
    endloop
  endfacet
  facet normal 0 0 1
    outer loop
      vertex 27.1 145.857 3
      vertex 28.5542 145.254 3
      vertex 29.3383 146.607 3
    endloop
  endfacet
  facet normal 0 0 1
    outer loop
      vertex 26.3011 147.3 3
      vertex 23.8655 142.242 3
      vertex 25.0435 143.8 3
    endloop
  endfacet
  facet normal 0 -0 1
    outer loop
      vertex 26.3011 147.3 3
      vertex 25.6458 145.254 3
      vertex 27.8989 147.3 3
    endloop
  endfacet
  facet normal 0 0 1
    outer loop
      vertex 26.3011 147.3 3
      vertex 25.0435 143.8 3
      vertex 25.6458 145.254 3
    endloop
  endfacet
  facet normal 0 -0 1
    outer loop
      vertex 27.8989 147.3 3
      vertex 27.1 145.857 3
      vertex 29.3383 146.607 3
    endloop
  endfacet
  facet normal 0 0 1
    outer loop
      vertex 25.6458 145.254 3
      vertex 27.1 145.857 3
      vertex 27.8989 147.3 3
    endloop
  endfacet
  facet normal 0 -0 1
    outer loop
      vertex 29.3383 146.607 3
      vertex 28.5542 145.254 3
      vertex 30.3345 145.358 3
    endloop
  endfacet
  facet normal 0 -0 1
    outer loop
      vertex 30.3345 145.358 3
      vertex 29.1565 143.8 3
      vertex 30.69 143.8 3
    endloop
  endfacet
  facet normal 0 0 1
    outer loop
      vertex 30.69 143.8 3
      vertex 28.5542 142.346 3
      vertex 30.3345 142.242 3
    endloop
  endfacet
  facet normal 0 0 1
    outer loop
      vertex 30.3345 142.242 3
      vertex 27.1 141.743 3
      vertex 29.3383 140.993 3
    endloop
  endfacet
  facet normal 0 0 1
    outer loop
      vertex 28.5542 145.254 3
      vertex 29.1565 143.8 3
      vertex 30.3345 145.358 3
    endloop
  endfacet
  facet normal 0 -0 1
    outer loop
      vertex 29.1565 143.8 3
      vertex 28.5542 142.346 3
      vertex 30.69 143.8 3
    endloop
  endfacet
  facet normal 0 -0 1
    outer loop
      vertex 28.5542 142.346 3
      vertex 27.1 141.743 3
      vertex 30.3345 142.242 3
    endloop
  endfacet
  facet normal -0 0 1
    outer loop
      vertex 25.6458 142.346 3
      vertex 25.0435 143.8 3
      vertex 23.8655 142.242 3
    endloop
  endfacet
  facet normal 0 0 1
    outer loop
      vertex 88.1655 4.54235 3
      vertex 89.1617 3.29322 3
      vertex 90.6011 2.6 3
    endloop
  endfacet
  facet normal -0 0 1
    outer loop
      vertex 93.6383 3.29322 3
      vertex 88.1655 4.54235 3
      vertex 92.1989 2.6 3
    endloop
  endfacet
  facet normal 0 0 1
    outer loop
      vertex 92.1989 2.6 3
      vertex 88.1655 4.54235 3
      vertex 90.6011 2.6 3
    endloop
  endfacet
  facet normal -0 -0 1
    outer loop
      vertex 91.4 4.04345 3
      vertex 88.1655 4.54235 3
      vertex 93.6383 3.29322 3
    endloop
  endfacet
  facet normal 0 0 1
    outer loop
      vertex 91.4 4.04345 3
      vertex 89.9458 4.6458 3
      vertex 88.1655 4.54235 3
    endloop
  endfacet
  facet normal 0 -0 1
    outer loop
      vertex 89.1617 8.90678 3
      vertex 88.1655 4.54235 3
      vertex 90.6011 9.6 3
    endloop
  endfacet
  facet normal 0 -0 1
    outer loop
      vertex 88.1655 7.65765 3
      vertex 88.1655 4.54235 3
      vertex 89.1617 8.90678 3
    endloop
  endfacet
  facet normal 0 0 1
    outer loop
      vertex 87.81 6.1 3
      vertex 88.1655 4.54235 3
      vertex 88.1655 7.65765 3
    endloop
  endfacet
  facet normal 0 0 1
    outer loop
      vertex 91.4 8.15654 3
      vertex 92.8542 7.5542 3
      vertex 93.6383 8.90678 3
    endloop
  endfacet
  facet normal 0 0 1
    outer loop
      vertex 90.6011 9.6 3
      vertex 88.1655 4.54235 3
      vertex 89.3435 6.1 3
    endloop
  endfacet
  facet normal 0 -0 1
    outer loop
      vertex 90.6011 9.6 3
      vertex 89.9458 7.5542 3
      vertex 92.1989 9.6 3
    endloop
  endfacet
  facet normal 0 0 1
    outer loop
      vertex 90.6011 9.6 3
      vertex 89.3435 6.1 3
      vertex 89.9458 7.5542 3
    endloop
  endfacet
  facet normal 0 -0 1
    outer loop
      vertex 92.1989 9.6 3
      vertex 91.4 8.15654 3
      vertex 93.6383 8.90678 3
    endloop
  endfacet
  facet normal 0 0 1
    outer loop
      vertex 89.9458 7.5542 3
      vertex 91.4 8.15654 3
      vertex 92.1989 9.6 3
    endloop
  endfacet
  facet normal 0 -0 1
    outer loop
      vertex 93.6383 8.90678 3
      vertex 92.8542 7.5542 3
      vertex 94.6345 7.65765 3
    endloop
  endfacet
  facet normal 0 -0 1
    outer loop
      vertex 94.6345 7.65765 3
      vertex 93.4565 6.1 3
      vertex 94.99 6.1 3
    endloop
  endfacet
  facet normal 0 0 1
    outer loop
      vertex 94.99 6.1 3
      vertex 92.8542 4.6458 3
      vertex 94.6345 4.54235 3
    endloop
  endfacet
  facet normal 0 0 1
    outer loop
      vertex 94.6345 4.54235 3
      vertex 91.4 4.04345 3
      vertex 93.6383 3.29322 3
    endloop
  endfacet
  facet normal 0 0 1
    outer loop
      vertex 92.8542 7.5542 3
      vertex 93.4565 6.1 3
      vertex 94.6345 7.65765 3
    endloop
  endfacet
  facet normal 0 -0 1
    outer loop
      vertex 93.4565 6.1 3
      vertex 92.8542 4.6458 3
      vertex 94.99 6.1 3
    endloop
  endfacet
  facet normal 0 -0 1
    outer loop
      vertex 92.8542 4.6458 3
      vertex 91.4 4.04345 3
      vertex 94.6345 4.54235 3
    endloop
  endfacet
  facet normal -0 0 1
    outer loop
      vertex 89.9458 4.6458 3
      vertex 89.3435 6.1 3
      vertex 88.1655 4.54235 3
    endloop
  endfacet
  facet normal 0 0 1
    outer loop
      vertex 88.1655 142.242 3
      vertex 89.1617 140.993 3
      vertex 90.6011 140.3 3
    endloop
  endfacet
  facet normal -0 0 1
    outer loop
      vertex 93.6383 140.993 3
      vertex 88.1655 142.242 3
      vertex 92.1989 140.3 3
    endloop
  endfacet
  facet normal 0 0 1
    outer loop
      vertex 92.1989 140.3 3
      vertex 88.1655 142.242 3
      vertex 90.6011 140.3 3
    endloop
  endfacet
  facet normal -0 -0 1
    outer loop
      vertex 91.4 141.743 3
      vertex 88.1655 142.242 3
      vertex 93.6383 140.993 3
    endloop
  endfacet
  facet normal 0 0 1
    outer loop
      vertex 91.4 141.743 3
      vertex 89.9458 142.346 3
      vertex 88.1655 142.242 3
    endloop
  endfacet
  facet normal 0 -0 1
    outer loop
      vertex 89.1617 146.607 3
      vertex 88.1655 142.242 3
      vertex 90.6011 147.3 3
    endloop
  endfacet
  facet normal 0 -0 1
    outer loop
      vertex 88.1655 145.358 3
      vertex 88.1655 142.242 3
      vertex 89.1617 146.607 3
    endloop
  endfacet
  facet normal 0 0 1
    outer loop
      vertex 87.81 143.8 3
      vertex 88.1655 142.242 3
      vertex 88.1655 145.358 3
    endloop
  endfacet
  facet normal 0 0 1
    outer loop
      vertex 91.4 145.857 3
      vertex 92.8542 145.254 3
      vertex 93.6383 146.607 3
    endloop
  endfacet
  facet normal 0 0 1
    outer loop
      vertex 90.6011 147.3 3
      vertex 88.1655 142.242 3
      vertex 89.3435 143.8 3
    endloop
  endfacet
  facet normal 0 -0 1
    outer loop
      vertex 90.6011 147.3 3
      vertex 89.9458 145.254 3
      vertex 92.1989 147.3 3
    endloop
  endfacet
  facet normal 0 0 1
    outer loop
      vertex 90.6011 147.3 3
      vertex 89.3435 143.8 3
      vertex 89.9458 145.254 3
    endloop
  endfacet
  facet normal 0 -0 1
    outer loop
      vertex 92.1989 147.3 3
      vertex 91.4 145.857 3
      vertex 93.6383 146.607 3
    endloop
  endfacet
  facet normal 0 0 1
    outer loop
      vertex 89.9458 145.254 3
      vertex 91.4 145.857 3
      vertex 92.1989 147.3 3
    endloop
  endfacet
  facet normal 0 -0 1
    outer loop
      vertex 93.6383 146.607 3
      vertex 92.8542 145.254 3
      vertex 94.6345 145.358 3
    endloop
  endfacet
  facet normal 0 -0 1
    outer loop
      vertex 94.6345 145.358 3
      vertex 93.4565 143.8 3
      vertex 94.99 143.8 3
    endloop
  endfacet
  facet normal 0 0 1
    outer loop
      vertex 94.99 143.8 3
      vertex 92.8542 142.346 3
      vertex 94.6345 142.242 3
    endloop
  endfacet
  facet normal 0 0 1
    outer loop
      vertex 94.6345 142.242 3
      vertex 91.4 141.743 3
      vertex 93.6383 140.993 3
    endloop
  endfacet
  facet normal 0 0 1
    outer loop
      vertex 92.8542 145.254 3
      vertex 93.4565 143.8 3
      vertex 94.6345 145.358 3
    endloop
  endfacet
  facet normal 0 -0 1
    outer loop
      vertex 93.4565 143.8 3
      vertex 92.8542 142.346 3
      vertex 94.99 143.8 3
    endloop
  endfacet
  facet normal 0 -0 1
    outer loop
      vertex 92.8542 142.346 3
      vertex 91.4 141.743 3
      vertex 94.6345 142.242 3
    endloop
  endfacet
  facet normal -0 0 1
    outer loop
      vertex 89.9458 142.346 3
      vertex 89.3435 143.8 3
      vertex 88.1655 142.242 3
    endloop
  endfacet
endsolid OpenSCAD_Model
